HIERARCHY
ROOT Hips
{
	OFFSET 0.000000 0.000000 0.000000
	CHANNELS 6 Xposition Yposition Zposition Zrotation Xrotation Yrotation
	JOINT Spine
	{
		OFFSET 0.000000 0.000000 -0.744707
		CHANNELS 3 Zrotation Xrotation Yrotation
		JOINT Spine1
		{
			OFFSET 0.000000 0.000000 -2.032240
			CHANNELS 3 Zrotation Xrotation Yrotation
			JOINT Neck
			{
				OFFSET 0.000000 0.000000 -2.213880
				CHANNELS 3 Zrotation Xrotation Yrotation
				JOINT Head
				{
					OFFSET 0.000000 0.181636 -1.407680
					CHANNELS 3 Zrotation Xrotation Yrotation
					End Site
					{
						OFFSET 0.000000 0.000000 -1.816356
					}
				}
			}
			JOINT LeftShoulder
			{
				OFFSET 0.365767 -0.048012 -1.787590
				CHANNELS 3 Zrotation Xrotation Yrotation
				JOINT LeftArm
				{
					OFFSET 1.305160 0.000000 0.000000
					CHANNELS 3 Zrotation Xrotation Yrotation
					JOINT LeftForeArm
					{
						OFFSET 2.559210 0.000000 0.000000
						CHANNELS 3 Zrotation Xrotation Yrotation
						JOINT LeftHand
						{
							OFFSET 2.378450 0.000000 0.000000
							CHANNELS 3 Zrotation Xrotation Yrotation
							End Site
							{
								OFFSET 1.362267 0.000000 0.000000
							}
						}
					}
				}
			}
			JOINT RightShoulder
			{
				OFFSET -0.360721 -0.048012 -1.787590
				CHANNELS 3 Zrotation Xrotation Yrotation
				JOINT RightArm
				{
					OFFSET -1.305160 0.000000 0.000000
					CHANNELS 3 Zrotation Xrotation Yrotation
					JOINT RightForeArm
					{
						OFFSET -2.559210 0.000000 0.000000
						CHANNELS 3 Zrotation Xrotation Yrotation
						JOINT RightHand
						{
							OFFSET -2.378450 0.000000 0.000000
							CHANNELS 3 Zrotation Xrotation Yrotation
							End Site
							{
								OFFSET -1.362267 0.000000 0.000000
							}
						}
					}
				}
			}
		}
	}
	JOINT LeftUpLeg
	{
		OFFSET 0.908180 0.000000 0.000000
		CHANNELS 3 Zrotation Xrotation Yrotation
		JOINT LeftLeg
		{
			OFFSET 0.000000 -0.000003 3.819490
			CHANNELS 3 Zrotation Xrotation Yrotation
			JOINT LeftFoot
			{
				OFFSET 0.000000 -0.000003 4.004300
				CHANNELS 3 Zrotation Xrotation Yrotation
				JOINT LeftToeBase
				{
					OFFSET 0.000000 1.362270 0.590317
					CHANNELS 3 Zrotation Xrotation Yrotation
					End Site
					{
						OFFSET 0.000000 0.363271 0.000000
					}
				}
			}
		}
	}
	JOINT RightUpLeg
	{
		OFFSET -0.908180 0.000000 0.000000
		CHANNELS 3 Zrotation Xrotation Yrotation
		JOINT RightLeg
		{
			OFFSET 0.000000 -0.000003 3.819490
			CHANNELS 3 Zrotation Xrotation Yrotation
			JOINT RightFoot
			{
				OFFSET 0.000000 -0.000003 4.004300
				CHANNELS 3 Zrotation Xrotation Yrotation
				JOINT RightToeBase
				{
					OFFSET 0.000000 1.362270 0.590317
					CHANNELS 3 Zrotation Xrotation Yrotation
					End Site
					{
						OFFSET 0.000000 0.363271 0.000000
					}
				}
			}
		}
	}
}
MOTION
Frames: 10
Frame Time: 0.016667
-1.172897 1.838407 -7.610187 0.188809 9.134061 1.304791 2.232043 -17.832229 -3.843648 0.305523 6.048384 12.220948 -3.448814 12.436064 1.516042 -4.348648 1.750973 -7.390152 0.331827 -8.581548 21.170566 12.467128 -9.910561 -1.607328 -0.666908 -5.863378 -2.228617 -19.938606 -4.840510 -5.911010 5.559914 -0.544547 -16.842205 -32.209656 33.083049 18.891350 -74.908440 25.945626 -34.872354 10.622783 -5.879730 -47.254192 -10.589212 -21.321668 13.478409 -4.008489 22.725504 -0.399250 -18.047076 0.843074 -8.771317 0.000008 0.000003 0.000002 -3.593530 -22.600433 -22.465378 -21.422753 25.615810 20.593698 49.603033 -6.917928 14.931555 0.000006 0.000004 -0.000004 
-1.173770 1.838430 -7.610147 0.197297 9.133520 1.295997 2.227325 -17.839518 -3.838052 0.303164 6.053031 12.224264 -3.504083 12.450642 1.544029 -4.408351 1.702130 -7.399847 0.338745 -8.586486 21.160927 12.461687 -9.916747 -1.602765 -0.673419 -5.867700 -2.243085 -19.947737 -4.852934 -5.863286 5.552147 -0.544641 -16.847242 -32.206982 33.150286 18.901305 -74.875293 25.957745 -34.959090 10.570348 -5.903114 -47.256576 -10.564641 -21.310265 13.498583 -4.033033 22.716825 -0.393030 -18.054343 0.854606 -8.816299 0.000001 -0.000003 -0.000001 -3.583463 -22.601931 -22.445444 -21.404355 25.616338 20.579437 49.579606 -6.925452 14.921368 0.000002 0.000004 -0.000000 
-1.174628 1.838608 -7.609982 0.197314 9.126395 1.295803 2.227189 -17.835181 -3.840029 0.303402 6.049616 12.227264 -3.566481 12.445937 1.565784 -4.471035 1.683068 -7.385133 0.342375 -8.592615 21.146623 12.458213 -9.887997 -1.597126 -0.674137 -5.875237 -2.249771 -19.953312 -4.860266 -5.863174 5.561557 -0.533935 -16.852355 -32.198536 33.153861 18.883152 -74.885545 25.955737 -34.970316 10.598183 -5.933289 -47.259872 -10.541539 -21.295724 13.509849 -4.016325 22.708919 -0.398399 -18.084574 0.853225 -8.778979 0.000006 -0.000000 -0.000001 -3.557936 -22.604291 -22.432080 -21.449458 25.614120 20.591883 49.587983 -6.945193 14.897254 0.000007 0.000002 0.000000 
-1.175332 1.838418 -7.609899 0.208255 9.126063 1.285098 2.222399 -17.838902 -3.827939 0.300869 6.053931 12.226714 -3.620715 12.445194 1.584796 -4.526491 1.655847 -7.376434 0.337477 -8.600150 21.149671 12.458081 -9.862769 -1.616236 -0.669665 -5.885025 -2.244297 -19.965662 -4.868059 -5.870226 5.555674 -0.539170 -16.866867 -32.181423 33.138603 18.881935 -74.907463 25.957198 -34.948166 10.618234 -5.932847 -47.263383 -10.499687 -21.280981 13.532949 -4.060830 22.695822 -0.383384 -18.089293 0.854032 -8.784132 -0.000005 -0.000000 0.000002 -3.561247 -22.619314 -22.417560 -21.484732 25.623774 20.614576 49.610819 -6.942016 14.908261 0.000010 -0.000001 -0.000000 
-1.176150 1.838444 -7.609684 0.207253 9.118089 1.288731 2.218930 -17.837678 -3.835068 0.299732 6.057186 12.227198 -3.665560 12.456900 1.609498 -4.574345 1.613572 -7.377740 0.330342 -8.593988 21.143100 12.471335 -9.880751 -1.610648 -0.681321 -5.875476 -2.248262 -19.955429 -4.860947 -5.860869 5.548591 -0.542348 -16.876772 -32.149243 33.113819 18.878443 -74.929033 25.971880 -34.920336 10.644064 -5.909846 -47.220991 -10.564728 -21.286920 13.490491 -4.078383 22.688601 -0.311302 -18.024207 0.865452 -8.804202 0.000000 0.000003 0.000001 -3.546126 -22.627713 -22.415351 -21.489928 25.644697 20.625749 49.598047 -6.955642 14.913870 0.000000 -0.000001 -0.000001 
-1.176778 1.838491 -7.609550 0.213331 9.110859 1.285614 2.213816 -17.838323 -3.832811 0.297309 6.064317 12.224460 -3.702206 12.445768 1.639340 -4.613257 1.609425 -7.386395 0.334325 -8.607818 21.154959 12.468980 -9.893912 -1.628673 -0.685893 -5.849612 -2.251699 -19.948379 -4.835060 -5.863416 5.539523 -0.544861 -16.882185 -32.136504 33.130925 18.884105 -74.923569 25.975320 -34.944013 10.665964 -5.937169 -47.249896 -10.578352 -21.279159 13.492522 -4.013104 22.687300 -0.327978 -18.079777 0.869156 -8.852984 0.000004 0.000007 0.000001 -3.538497 -22.621759 -22.412434 -21.532190 25.626586 20.650937 49.613087 -6.972432 14.887365 0.000004 0.000001 0.000002 
-1.177518 1.838294 -7.609241 0.216631 9.106047 1.290698 2.205885 -17.840329 -3.847124 0.294011 6.072576 12.235077 -3.737431 12.441395 1.657018 -4.650545 1.589107 -7.388863 0.336997 -8.608197 21.146158 12.466993 -9.891437 -1.627691 -0.689382 -5.842702 -2.247088 -19.934365 -4.828735 -5.864528 5.529305 -0.557513 -16.888597 -32.117206 33.132582 18.890275 -74.925727 25.974953 -34.948288 10.661108 -5.943470 -47.275738 -10.608754 -21.283792 13.482207 -3.994103 22.688727 -0.321132 -18.066800 0.866657 -8.811004 0.000009 0.000002 0.000004 -3.536594 -22.647570 -22.410122 -21.555519 25.670969 20.669918 49.618377 -6.980505 14.912955 0.000005 0.000002 0.000001 
-1.178143 1.838342 -7.609079 0.218106 9.096142 1.291041 2.202747 -17.840768 -3.839100 0.292300 6.083590 12.218591 -3.764848 12.430928 1.701400 -4.684300 1.582961 -7.429402 0.338347 -8.606844 21.149966 12.460667 -9.871234 -1.639554 -0.677693 -5.848913 -2.226230 -19.938234 -4.835381 -5.859041 5.529550 -0.553238 -16.888618 -32.112616 33.110332 18.892368 -74.901316 25.986799 -34.952516 10.690590 -5.936268 -47.295051 -10.616872 -21.274040 13.485482 -3.988734 22.685372 -0.320195 -18.060967 0.867390 -8.814206 0.000009 -0.000000 0.000001 -3.516229 -22.645490 -22.399382 -21.550389 25.678513 20.659490 49.590011 -6.991776 14.908408 0.000008 0.000002 -0.000002 
-1.178617 1.838275 -7.608948 0.218178 9.089177 1.291757 2.193590 -17.853426 -3.831542 0.287288 6.107480 12.202537 -3.787969 12.424042 1.721956 -4.708805 1.569140 -7.428780 0.353152 -8.600065 21.146585 12.448010 -9.847565 -1.636399 -0.670186 -5.849008 -2.216299 -19.950315 -4.834820 -5.857886 5.532640 -0.553866 -16.889873 -32.098327 33.075891 18.896847 -74.903782 25.983389 -34.935369 10.692801 -5.925858 -47.284546 -10.618759 -21.264940 13.488290 -4.017034 22.681043 -0.307819 -18.034952 0.875809 -8.861049 0.000002 -0.000001 -0.000003 -3.506557 -22.652145 -22.396204 -21.559890 25.693934 20.672339 49.588567 -6.999845 14.904815 -0.000001 0.000005 0.000001 
-1.179106 1.838213 -7.608815 0.215647 9.082622 1.294682 2.192994 -17.856184 -3.830319 0.286233 6.117433 12.198243 -3.819413 12.420650 1.734036 -4.741376 1.550067 -7.424851 0.350899 -8.597209 21.143831 12.445314 -9.866160 -1.634726 -0.671041 -5.828544 -2.221872 -19.944950 -4.814731 -5.857410 5.536575 -0.550698 -16.887919 -32.084674 33.048400 18.879568 -74.908747 25.969020 -34.914561 10.686787 -5.922362 -47.277176 -10.621814 -21.260279 13.487203 -4.025241 22.676366 -0.300537 -18.018601 0.875355 -8.820507 0.000005 0.000001 0.000000 -3.504521 -22.651182 -22.398764 -21.570992 25.699432 20.685648 49.591534 -7.013614 14.883949 0.000005 0.000001 -0.000003 
